<mxfile host="app.diagrams.net" modified="2023-09-02T20:35:21.198Z" agent="Mozilla/5.0 (X11; Linux x86_64) AppleWebKit/537.36 (KHTML, like Gecko) Chrome/115.0.0.0 Safari/537.36" etag="2GTlr68ZaIPHbwFc1gl2" version="21.6.6" type="device">
  <diagram name="Page-1" id="GlffNfZ_50gW5lbreJJJ">
    <mxGraphModel dx="3440" dy="2485" grid="1" gridSize="10" guides="1" tooltips="1" connect="1" arrows="1" fold="1" page="1" pageScale="1" pageWidth="850" pageHeight="1100" math="0" shadow="0">
      <root>
        <mxCell id="0" />
        <mxCell id="1" parent="0" />
        <mxCell id="blUaHBLHkiguSHWqvS0H-9" value="e3&lt;br&gt;c3" style="shape=image;html=1;verticalAlign=top;verticalLabelPosition=bottom;labelBackgroundColor=#ffffff;imageAspect=0;aspect=fixed;image=https://cdn1.iconfinder.com/data/icons/material-core/20/event-128.png" parent="1" vertex="1">
          <mxGeometry x="406" y="290" width="38" height="38" as="geometry" />
        </mxCell>
        <mxCell id="blUaHBLHkiguSHWqvS0H-17" value="handle" style="rhombus;whiteSpace=wrap;html=1;" parent="1" vertex="1">
          <mxGeometry x="240.00000000000003" y="281" width="80" height="80" as="geometry" />
        </mxCell>
        <mxCell id="7T5Nnjyx6sbQKB9U3qqH-7" style="rounded=0;orthogonalLoop=1;jettySize=auto;html=1;" edge="1" parent="1" source="blUaHBLHkiguSHWqvS0H-18" target="7T5Nnjyx6sbQKB9U3qqH-6">
          <mxGeometry relative="1" as="geometry" />
        </mxCell>
        <mxCell id="7T5Nnjyx6sbQKB9U3qqH-22" style="rounded=0;orthogonalLoop=1;jettySize=auto;html=1;" edge="1" parent="1" source="blUaHBLHkiguSHWqvS0H-18" target="7T5Nnjyx6sbQKB9U3qqH-21">
          <mxGeometry relative="1" as="geometry" />
        </mxCell>
        <mxCell id="blUaHBLHkiguSHWqvS0H-18" value="evolve" style="rhombus;whiteSpace=wrap;html=1;" parent="1" vertex="1">
          <mxGeometry x="640" y="278.66" width="80" height="80" as="geometry" />
        </mxCell>
        <mxCell id="7T5Nnjyx6sbQKB9U3qqH-49" style="edgeStyle=orthogonalEdgeStyle;rounded=0;orthogonalLoop=1;jettySize=auto;html=1;entryX=0.538;entryY=-0.122;entryDx=0;entryDy=0;entryPerimeter=0;exitX=0.5;exitY=1;exitDx=0;exitDy=0;" edge="1" parent="1" source="blUaHBLHkiguSHWqvS0H-23" target="7T5Nnjyx6sbQKB9U3qqH-39">
          <mxGeometry relative="1" as="geometry">
            <Array as="points">
              <mxPoint x="910" y="460" />
              <mxPoint x="285" y="460" />
            </Array>
          </mxGeometry>
        </mxCell>
        <mxCell id="blUaHBLHkiguSHWqvS0H-23" value="saga" style="rhombus;whiteSpace=wrap;html=1;" parent="1" vertex="1">
          <mxGeometry x="870" y="281" width="80" height="80" as="geometry" />
        </mxCell>
        <mxCell id="KrlbTtCWOSS_1pRjixsM-2" value="e1&lt;br&gt;c9" style="shape=image;html=1;verticalAlign=top;verticalLabelPosition=bottom;labelBackgroundColor=#ffffff;imageAspect=0;aspect=fixed;image=https://cdn1.iconfinder.com/data/icons/material-core/20/event-128.png" parent="1" vertex="1">
          <mxGeometry x="436" y="700" width="38" height="38" as="geometry" />
        </mxCell>
        <mxCell id="KrlbTtCWOSS_1pRjixsM-3" value="e2&lt;br&gt;c4&lt;br&gt;saga: e3" style="shape=image;html=1;verticalAlign=top;verticalLabelPosition=bottom;labelBackgroundColor=#ffffff;imageAspect=0;aspect=fixed;image=https://cdn1.iconfinder.com/data/icons/material-core/20/event-128.png" parent="1" vertex="1">
          <mxGeometry x="377" y="700" width="38" height="38" as="geometry" />
        </mxCell>
        <mxCell id="KrlbTtCWOSS_1pRjixsM-4" value="handle" style="rhombus;whiteSpace=wrap;html=1;" parent="1" vertex="1">
          <mxGeometry x="240" y="680" width="80" height="80" as="geometry" />
        </mxCell>
        <mxCell id="KrlbTtCWOSS_1pRjixsM-5" value="evolve" style="rhombus;whiteSpace=wrap;html=1;" parent="1" vertex="1">
          <mxGeometry x="640" y="679.33" width="80" height="80" as="geometry" />
        </mxCell>
        <mxCell id="KrlbTtCWOSS_1pRjixsM-12" value="saga" style="rhombus;whiteSpace=wrap;html=1;" parent="1" vertex="1">
          <mxGeometry x="800" y="678.66" width="80" height="80" as="geometry" />
        </mxCell>
        <mxCell id="7T5Nnjyx6sbQKB9U3qqH-6" value="in memory processedCommands Ids" style="text;html=1;align=center;verticalAlign=middle;resizable=0;points=[];autosize=1;strokeColor=none;fillColor=none;" vertex="1" parent="1">
          <mxGeometry x="550" y="138" width="220" height="30" as="geometry" />
        </mxCell>
        <mxCell id="7T5Nnjyx6sbQKB9U3qqH-8" value="&lt;font style=&quot;font-size: 36px;&quot;&gt;Empty Stream Scenario&lt;/font&gt;" style="text;html=1;align=center;verticalAlign=middle;resizable=0;points=[];autosize=1;strokeColor=none;fillColor=none;" vertex="1" parent="1">
          <mxGeometry x="-480" y="-90" width="400" height="60" as="geometry" />
        </mxCell>
        <mxCell id="7T5Nnjyx6sbQKB9U3qqH-13" style="edgeStyle=orthogonalEdgeStyle;rounded=0;orthogonalLoop=1;jettySize=auto;html=1;entryX=0.5;entryY=0;entryDx=0;entryDy=0;exitX=1;exitY=0.5;exitDx=0;exitDy=0;exitPerimeter=0;" edge="1" parent="1" source="7T5Nnjyx6sbQKB9U3qqH-9" target="7T5Nnjyx6sbQKB9U3qqH-12">
          <mxGeometry relative="1" as="geometry" />
        </mxCell>
        <mxCell id="7T5Nnjyx6sbQKB9U3qqH-12" value="load events" style="rhombus;whiteSpace=wrap;html=1;" vertex="1" parent="1">
          <mxGeometry x="-30" y="278.66" width="80" height="78.66" as="geometry" />
        </mxCell>
        <mxCell id="7T5Nnjyx6sbQKB9U3qqH-17" value="" style="group" vertex="1" connectable="0" parent="1">
          <mxGeometry x="169.99999999999994" y="25" width="220" height="90" as="geometry" />
        </mxCell>
        <mxCell id="7T5Nnjyx6sbQKB9U3qqH-14" value="" style="shape=cylinder3;whiteSpace=wrap;html=1;boundedLbl=1;backgroundOutline=1;size=15;rotation=90;" vertex="1" parent="7T5Nnjyx6sbQKB9U3qqH-17">
          <mxGeometry x="80" y="-50" width="60" height="220" as="geometry" />
        </mxCell>
        <mxCell id="7T5Nnjyx6sbQKB9U3qqH-15" value="Command Stream" style="text;html=1;align=center;verticalAlign=middle;resizable=0;points=[];autosize=1;strokeColor=none;fillColor=none;" vertex="1" parent="7T5Nnjyx6sbQKB9U3qqH-17">
          <mxGeometry x="50" width="120" height="30" as="geometry" />
        </mxCell>
        <mxCell id="blUaHBLHkiguSHWqvS0H-14" value="c3" style="shape=image;html=1;verticalAlign=top;verticalLabelPosition=bottom;labelBackgroundColor=#ffffff;imageAspect=0;aspect=fixed;image=https://cdn0.iconfinder.com/data/icons/evericons-24px-vol-2/24/command-128.png;container=0;" parent="7T5Nnjyx6sbQKB9U3qqH-17" vertex="1">
          <mxGeometry x="30.65" y="39.5" width="28.82" height="28.82" as="geometry" />
        </mxCell>
        <mxCell id="blUaHBLHkiguSHWqvS0H-15" value="c2" style="shape=image;html=1;verticalAlign=top;verticalLabelPosition=bottom;labelBackgroundColor=#ffffff;imageAspect=0;aspect=fixed;image=https://cdn0.iconfinder.com/data/icons/evericons-24px-vol-2/24/command-128.png;container=0;" parent="7T5Nnjyx6sbQKB9U3qqH-17" vertex="1">
          <mxGeometry x="70.65" y="37.82" width="30.5" height="30.5" as="geometry" />
        </mxCell>
        <mxCell id="blUaHBLHkiguSHWqvS0H-16" value="c1" style="shape=image;html=1;verticalAlign=top;verticalLabelPosition=bottom;labelBackgroundColor=#ffffff;imageAspect=0;aspect=fixed;image=https://cdn0.iconfinder.com/data/icons/evericons-24px-vol-2/24/command-128.png;container=0;" parent="7T5Nnjyx6sbQKB9U3qqH-17" vertex="1">
          <mxGeometry x="110.5" y="37.82" width="29.5" height="29.5" as="geometry" />
        </mxCell>
        <mxCell id="7T5Nnjyx6sbQKB9U3qqH-18" value="" style="group" vertex="1" connectable="0" parent="1">
          <mxGeometry x="-80" y="25" width="180" height="90" as="geometry" />
        </mxCell>
        <mxCell id="7T5Nnjyx6sbQKB9U3qqH-9" value="" style="shape=cylinder3;whiteSpace=wrap;html=1;boundedLbl=1;backgroundOutline=1;size=15;rotation=90;" vertex="1" parent="7T5Nnjyx6sbQKB9U3qqH-18">
          <mxGeometry x="60" y="-30" width="60" height="180" as="geometry" />
        </mxCell>
        <mxCell id="7T5Nnjyx6sbQKB9U3qqH-11" value="event stream" style="text;html=1;align=center;verticalAlign=middle;resizable=0;points=[];autosize=1;strokeColor=none;fillColor=none;" vertex="1" parent="7T5Nnjyx6sbQKB9U3qqH-18">
          <mxGeometry x="40.06" width="90" height="30" as="geometry" />
        </mxCell>
        <mxCell id="7T5Nnjyx6sbQKB9U3qqH-20" value="e3,e2,e1" style="sketch=0;html=1;aspect=fixed;strokeColor=none;shadow=0;fillColor=#3B8DF1;verticalAlign=top;labelPosition=center;verticalLabelPosition=bottom;shape=mxgraph.gcp2.memory_card" vertex="1" parent="1">
          <mxGeometry x="600" y="20" width="93" height="100" as="geometry" />
        </mxCell>
        <mxCell id="7T5Nnjyx6sbQKB9U3qqH-21" value="s1,s&lt;br&gt;" style="sketch=0;html=1;aspect=fixed;strokeColor=none;shadow=0;fillColor=#3B8DF1;verticalAlign=top;labelPosition=center;verticalLabelPosition=bottom;shape=mxgraph.gcp2.memory_card" vertex="1" parent="1">
          <mxGeometry x="787" y="20" width="93" height="100" as="geometry" />
        </mxCell>
        <mxCell id="7T5Nnjyx6sbQKB9U3qqH-23" value="Saga sources" style="sketch=0;html=1;aspect=fixed;strokeColor=none;shadow=0;fillColor=#3B8DF1;verticalAlign=top;labelPosition=center;verticalLabelPosition=bottom;shape=mxgraph.gcp2.memory_card" vertex="1" parent="1">
          <mxGeometry x="920" y="20" width="93" height="100" as="geometry" />
        </mxCell>
        <mxCell id="7T5Nnjyx6sbQKB9U3qqH-27" value="" style="shape=flexArrow;endArrow=classic;html=1;rounded=0;strokeWidth=4;" edge="1" parent="1">
          <mxGeometry width="50" height="50" relative="1" as="geometry">
            <mxPoint x="-480" y="563.38" as="sourcePoint" />
            <mxPoint x="-130" y="563.38" as="targetPoint" />
          </mxGeometry>
        </mxCell>
        <mxCell id="7T5Nnjyx6sbQKB9U3qqH-28" value="Partition 1&amp;nbsp;" style="edgeLabel;html=1;align=center;verticalAlign=middle;resizable=0;points=[];fontSize=36;" vertex="1" connectable="0" parent="7T5Nnjyx6sbQKB9U3qqH-27">
          <mxGeometry x="-0.2914" y="-6" relative="1" as="geometry">
            <mxPoint x="33" y="-6" as="offset" />
          </mxGeometry>
        </mxCell>
        <mxCell id="7T5Nnjyx6sbQKB9U3qqH-37" value="" style="group;movable=1;resizable=1;rotatable=1;deletable=1;editable=1;locked=0;connectable=1;" vertex="1" connectable="0" parent="1">
          <mxGeometry x="170" y="519" width="220" height="90" as="geometry" />
        </mxCell>
        <mxCell id="7T5Nnjyx6sbQKB9U3qqH-38" value="" style="shape=cylinder3;whiteSpace=wrap;html=1;boundedLbl=1;backgroundOutline=1;size=15;rotation=90;" vertex="1" parent="7T5Nnjyx6sbQKB9U3qqH-37">
          <mxGeometry x="80" y="-50" width="60" height="220" as="geometry" />
        </mxCell>
        <mxCell id="7T5Nnjyx6sbQKB9U3qqH-39" value="Command Stream" style="text;html=1;align=center;verticalAlign=middle;resizable=0;points=[];autosize=1;strokeColor=none;fillColor=none;" vertex="1" parent="7T5Nnjyx6sbQKB9U3qqH-37">
          <mxGeometry x="50" width="120" height="30" as="geometry" />
        </mxCell>
        <mxCell id="KrlbTtCWOSS_1pRjixsM-17" value="c4&lt;br&gt;saga: e3" style="dashed=0;outlineConnect=0;html=1;align=center;labelPosition=center;verticalLabelPosition=bottom;verticalAlign=top;shape=mxgraph.weblogos.connotea" parent="7T5Nnjyx6sbQKB9U3qqH-37" vertex="1">
          <mxGeometry x="30" y="58" width="40" height="32" as="geometry" />
        </mxCell>
        <mxCell id="KrlbTtCWOSS_1pRjixsM-18" value="c9" style="shape=image;html=1;verticalAlign=top;verticalLabelPosition=bottom;labelBackgroundColor=#ffffff;imageAspect=0;aspect=fixed;image=https://cdn0.iconfinder.com/data/icons/evericons-24px-vol-2/24/command-128.png;container=0;" parent="7T5Nnjyx6sbQKB9U3qqH-37" vertex="1">
          <mxGeometry x="119.32" y="56" width="34" height="34" as="geometry" />
        </mxCell>
        <mxCell id="7T5Nnjyx6sbQKB9U3qqH-43" value="" style="group" vertex="1" connectable="0" parent="1">
          <mxGeometry x="-60" y="514" width="180" height="90" as="geometry" />
        </mxCell>
        <mxCell id="7T5Nnjyx6sbQKB9U3qqH-44" value="" style="shape=cylinder3;whiteSpace=wrap;html=1;boundedLbl=1;backgroundOutline=1;size=15;rotation=90;" vertex="1" parent="7T5Nnjyx6sbQKB9U3qqH-43">
          <mxGeometry x="60" y="-30" width="60" height="180" as="geometry" />
        </mxCell>
        <mxCell id="7T5Nnjyx6sbQKB9U3qqH-45" value="event stream" style="text;html=1;align=center;verticalAlign=middle;resizable=0;points=[];autosize=1;strokeColor=none;fillColor=none;" vertex="1" parent="7T5Nnjyx6sbQKB9U3qqH-43">
          <mxGeometry x="40.06" width="90" height="30" as="geometry" />
        </mxCell>
        <mxCell id="7T5Nnjyx6sbQKB9U3qqH-46" value="e2,e1&lt;br&gt;in memory processedCommands Ids" style="sketch=0;html=1;aspect=fixed;strokeColor=none;shadow=0;fillColor=#3B8DF1;verticalAlign=top;labelPosition=center;verticalLabelPosition=bottom;shape=mxgraph.gcp2.memory_card" vertex="1" parent="1">
          <mxGeometry x="613.5" y="500" width="93" height="100" as="geometry" />
        </mxCell>
        <mxCell id="7T5Nnjyx6sbQKB9U3qqH-47" value="s1,s&lt;br&gt;state Aggregates Map" style="sketch=0;html=1;aspect=fixed;strokeColor=none;shadow=0;fillColor=#3B8DF1;verticalAlign=top;labelPosition=center;verticalLabelPosition=bottom;shape=mxgraph.gcp2.memory_card" vertex="1" parent="1">
          <mxGeometry x="787" y="500" width="93" height="100" as="geometry" />
        </mxCell>
        <mxCell id="7T5Nnjyx6sbQKB9U3qqH-48" value="e3&lt;br&gt;Saga sources" style="sketch=0;html=1;aspect=fixed;strokeColor=none;shadow=0;fillColor=#3B8DF1;verticalAlign=top;labelPosition=center;verticalLabelPosition=bottom;shape=mxgraph.gcp2.memory_card" vertex="1" parent="1">
          <mxGeometry x="920" y="500" width="93" height="100" as="geometry" />
        </mxCell>
        <mxCell id="7T5Nnjyx6sbQKB9U3qqH-50" style="edgeStyle=orthogonalEdgeStyle;rounded=0;orthogonalLoop=1;jettySize=auto;html=1;entryX=0.5;entryY=0;entryDx=0;entryDy=0;" edge="1" parent="1" source="7T5Nnjyx6sbQKB9U3qqH-38" target="KrlbTtCWOSS_1pRjixsM-4">
          <mxGeometry relative="1" as="geometry" />
        </mxCell>
        <mxCell id="7T5Nnjyx6sbQKB9U3qqH-51" value="" style="shape=flexArrow;endArrow=classic;html=1;rounded=0;strokeWidth=4;" edge="1" parent="1">
          <mxGeometry width="50" height="50" relative="1" as="geometry">
            <mxPoint x="-470" y="308.38" as="sourcePoint" />
            <mxPoint x="-120" y="308.38" as="targetPoint" />
          </mxGeometry>
        </mxCell>
        <mxCell id="7T5Nnjyx6sbQKB9U3qqH-52" value="Partition 0&amp;nbsp;" style="edgeLabel;html=1;align=center;verticalAlign=middle;resizable=0;points=[];fontSize=36;" vertex="1" connectable="0" parent="7T5Nnjyx6sbQKB9U3qqH-51">
          <mxGeometry x="-0.2914" y="-6" relative="1" as="geometry">
            <mxPoint x="33" y="-6" as="offset" />
          </mxGeometry>
        </mxCell>
        <mxCell id="7T5Nnjyx6sbQKB9U3qqH-53" value="load events" style="rhombus;whiteSpace=wrap;html=1;" vertex="1" parent="1">
          <mxGeometry x="-10" y="681.34" width="80" height="78.66" as="geometry" />
        </mxCell>
        <mxCell id="7T5Nnjyx6sbQKB9U3qqH-54" style="edgeStyle=orthogonalEdgeStyle;rounded=0;orthogonalLoop=1;jettySize=auto;html=1;" edge="1" parent="1" source="7T5Nnjyx6sbQKB9U3qqH-44" target="7T5Nnjyx6sbQKB9U3qqH-53">
          <mxGeometry relative="1" as="geometry" />
        </mxCell>
        <mxCell id="7T5Nnjyx6sbQKB9U3qqH-62" value="e3-c4" style="dashed=0;outlineConnect=0;html=1;align=center;labelPosition=center;verticalLabelPosition=bottom;verticalAlign=top;shape=mxgraph.weblogos.connotea" vertex="1" parent="1">
          <mxGeometry x="550" y="420" width="40" height="32" as="geometry" />
        </mxCell>
        <mxCell id="7T5Nnjyx6sbQKB9U3qqH-67" value="e2&lt;br&gt;c2" style="shape=image;html=1;verticalAlign=top;verticalLabelPosition=bottom;labelBackgroundColor=#ffffff;imageAspect=0;aspect=fixed;image=https://cdn1.iconfinder.com/data/icons/material-core/20/event-128.png" vertex="1" parent="1">
          <mxGeometry x="460" y="290" width="38" height="38" as="geometry" />
        </mxCell>
        <mxCell id="7T5Nnjyx6sbQKB9U3qqH-68" value="e1&lt;br&gt;c1" style="shape=image;html=1;verticalAlign=top;verticalLabelPosition=bottom;labelBackgroundColor=#ffffff;imageAspect=0;aspect=fixed;image=https://cdn1.iconfinder.com/data/icons/material-core/20/event-128.png" vertex="1" parent="1">
          <mxGeometry x="520" y="290" width="38" height="38" as="geometry" />
        </mxCell>
        <mxCell id="7T5Nnjyx6sbQKB9U3qqH-69" style="edgeStyle=orthogonalEdgeStyle;rounded=0;orthogonalLoop=1;jettySize=auto;html=1;" edge="1" parent="1" source="7T5Nnjyx6sbQKB9U3qqH-14" target="blUaHBLHkiguSHWqvS0H-17">
          <mxGeometry relative="1" as="geometry" />
        </mxCell>
      </root>
    </mxGraphModel>
  </diagram>
</mxfile>
